REM DIRINDEX 1\3,1\2\4,1\2\5,1\2\6
REM DIRNAME folder01,folder02,folder03,folder04,folder05,folder06
TITLE ""
FILE "030.mp3" MP3
  TRACK 01 AUDIO
    TITLE "4:cjc137_1221"
    INDEX 01 00:00:00
  TRACK 02 AUDIO
    TITLE "0:"
    INDEX 01 00:01:01
  TRACK 03 AUDIO
    TITLE "6:cjc137_1222"
    INDEX 01 00:01:09
  TRACK 04 AUDIO
    TITLE "0:"
    INDEX 01 00:02:36
  TRACK 05 AUDIO
    TITLE "5:cjc137_1223"
    INDEX 01 00:02:40
  TRACK 06 AUDIO
    TITLE "0:"
    INDEX 01 00:03:39
  TRACK 07 AUDIO
    TITLE "4:cjc137_1224"
    INDEX 01 00:04:46
  TRACK 08 AUDIO
    TITLE "0:"
    INDEX 01 00:05:42
  TRACK 09 AUDIO
    TITLE "6:cjc137_1225"
    INDEX 01 00:05:52
  TRACK 10 AUDIO
    TITLE "0:"
    INDEX 01 00:06:39
  TRACK 11 AUDIO
    TITLE "5:cjc137_1226"
    INDEX 01 00:06:45
  TRACK 12 AUDIO
    TITLE "0:"
    INDEX 01 00:07:43
  TRACK 13 AUDIO
    TITLE "4:cjc137_1227"
    INDEX 01 00:08:52
  TRACK 14 AUDIO
    TITLE "0:"
    INDEX 01 00:09:49
  TRACK 15 AUDIO
    TITLE "6:cjc137_1228"
    INDEX 01 00:09:55
  TRACK 16 AUDIO
    TITLE "0:"
    INDEX 01 00:10:66
  TRACK 17 AUDIO
    TITLE "5:cjc137_1229"
    INDEX 01 00:10:70
  TRACK 18 AUDIO
    TITLE "0:"
    INDEX 01 00:11:66
  TRACK 19 AUDIO
    TITLE "4:cjc137_1230"
    INDEX 01 00:13:00
  TRACK 20 AUDIO
    TITLE "0:"
    INDEX 01 00:13:73
  TRACK 21 AUDIO
    TITLE "6:cjc137_1231"
    INDEX 01 00:14:04
  TRACK 22 AUDIO
    TITLE "0:"
    INDEX 01 00:15:01
  TRACK 23 AUDIO
    TITLE "5:cjc137_1232"
    INDEX 01 00:15:07
  TRACK 24 AUDIO
    TITLE "0:"
    INDEX 01 00:16:04
  TRACK 25 AUDIO
    TITLE "4:cjc137_1233"
    INDEX 01 00:17:14
  TRACK 26 AUDIO
    TITLE "0:"
    INDEX 01 00:18:19
  TRACK 27 AUDIO
    TITLE "6:cjc137_1234"
    INDEX 01 00:18:25
  TRACK 28 AUDIO
    TITLE "0:"
    INDEX 01 00:19:13
  TRACK 29 AUDIO
    TITLE "5:cjc137_1235"
    INDEX 01 00:19:20
  TRACK 30 AUDIO
    TITLE "0:"
    INDEX 01 00:20:24
  TRACK 31 AUDIO
    TITLE "4:cjc137_1236"
    INDEX 01 00:21:35
  TRACK 32 AUDIO
    TITLE "0:"
    INDEX 01 00:22:34
  TRACK 33 AUDIO
    TITLE "6:cjc137_1237"
    INDEX 01 00:22:42
  TRACK 34 AUDIO
    TITLE "0:"
    INDEX 01 00:23:51
  TRACK 35 AUDIO
    TITLE "5:cjc137_1238"
    INDEX 01 00:23:63
  TRACK 36 AUDIO
    TITLE "0:"
    INDEX 01 00:24:61
  TRACK 37 AUDIO
    TITLE "4:cjc137_1239"
    INDEX 01 00:25:72
  TRACK 38 AUDIO
    TITLE "0:"
    INDEX 01 00:27:12
  TRACK 39 AUDIO
    TITLE "6:cjc137_1240"
    INDEX 01 00:27:22
  TRACK 40 AUDIO
    TITLE "0:"
    INDEX 01 00:28:15
  TRACK 41 AUDIO
    TITLE "5:cjc137_1241"
    INDEX 01 00:28:25
  TRACK 42 AUDIO
    TITLE "0:"
    INDEX 01 00:29:40
  TRACK 43 AUDIO
    TITLE "4:cjc137_1242"
    INDEX 01 00:30:52
  TRACK 44 AUDIO
    TITLE "0:"
    INDEX 01 00:31:61
  TRACK 45 AUDIO
    TITLE "6:cjc137_1243"
    INDEX 01 00:31:67
  TRACK 46 AUDIO
    TITLE "0:"
    INDEX 01 00:33:66
  TRACK 47 AUDIO
    TITLE "5:cjc137_1244"
    INDEX 01 00:34:00
  TRACK 48 AUDIO
    TITLE "0:"
    INDEX 01 00:35:10
  TRACK 49 AUDIO
    TITLE "4:cjc137_1245"
    INDEX 01 00:36:17
  TRACK 50 AUDIO
    TITLE "0:"
    INDEX 01 00:37:24
  TRACK 51 AUDIO
    TITLE "6:cjc137_1246"
    INDEX 01 00:37:30
  TRACK 52 AUDIO
    TITLE "0:"
    INDEX 01 00:38:39
  TRACK 53 AUDIO
    TITLE "5:cjc137_1247"
    INDEX 01 00:38:47
  TRACK 54 AUDIO
    TITLE "0:"
    INDEX 01 00:39:54
  TRACK 55 AUDIO
    TITLE "4:cjc137_1248"
    INDEX 01 00:40:62
  TRACK 56 AUDIO
    TITLE "0:"
    INDEX 01 00:42:00
  TRACK 57 AUDIO
    TITLE "6:cjc137_1249"
    INDEX 01 00:42:06
  TRACK 58 AUDIO
    TITLE "0:"
    INDEX 01 00:43:07
  TRACK 59 AUDIO
    TITLE "5:cjc137_1250"
    INDEX 01 00:43:13
  TRACK 60 AUDIO
    TITLE "0:"
    INDEX 01 00:44:28
  TRACK 61 AUDIO
    TITLE "4:cjc137_1251"
    INDEX 01 00:45:33
  TRACK 62 AUDIO
    TITLE "0:"
    INDEX 01 00:46:27
  TRACK 63 AUDIO
    TITLE "6:cjc137_1252"
    INDEX 01 00:46:35
  TRACK 64 AUDIO
    TITLE "0:"
    INDEX 01 00:47:30
  TRACK 65 AUDIO
    TITLE "5:cjc137_1253"
    INDEX 01 00:47:38
  TRACK 66 AUDIO
    TITLE "0:"
    INDEX 01 00:48:34
  TRACK 67 AUDIO
    TITLE "4:cjc137_1254"
    INDEX 01 00:49:43
  TRACK 68 AUDIO
    TITLE "0:"
    INDEX 01 00:50:46
  TRACK 69 AUDIO
    TITLE "6:cjc137_1255"
    INDEX 01 00:50:54
  TRACK 70 AUDIO
    TITLE "0:"
    INDEX 01 00:51:30
  TRACK 71 AUDIO
    TITLE "5:cjc137_1256"
    INDEX 01 00:51:42
  TRACK 72 AUDIO
    TITLE "0:"
    INDEX 01 00:52:45
  TRACK 73 AUDIO
    TITLE "4:cjc137_1257"
    INDEX 01 00:53:53
  TRACK 74 AUDIO
    TITLE "0:"
    INDEX 01 00:54:46
  TRACK 75 AUDIO
    TITLE "6:cjc137_1258"
    INDEX 01 00:54:58
  TRACK 76 AUDIO
    TITLE "0:"
    INDEX 01 00:55:69
  TRACK 77 AUDIO
    TITLE "5:cjc137_1259"
    INDEX 01 00:56:02
  TRACK 78 AUDIO
    TITLE "0:"
    INDEX 01 00:56:69
  TRACK 79 AUDIO
    TITLE "4:cjc137_1260"
    INDEX 01 00:58:05
  TRACK 80 AUDIO
    TITLE "0:"
    INDEX 01 00:59:06
  TRACK 81 AUDIO
    TITLE "6:cjc137_1261"
    INDEX 01 00:59:16
  TRACK 82 AUDIO
    TITLE "0:"
    INDEX 01 01:00:21
  TRACK 83 AUDIO
    TITLE "5:cjc137_1262"
    INDEX 01 01:00:27
  TRACK 84 AUDIO
    TITLE "0:"
    INDEX 01 01:01:31
